<mxfile host="app.diagrams.net" agent="Mozilla/5.0 (Windows NT 10.0; Win64; x64) AppleWebKit/537.36 (KHTML, like Gecko) Chrome/136.0.0.0 Safari/537.36 Edg/136.0.0.0" version="27.0.6">
  <diagram name="第 1 页" id="eyDyg9CwF7-JI1joJyjy">
    <mxGraphModel dx="1908" dy="2254" grid="1" gridSize="10" guides="1" tooltips="1" connect="1" arrows="1" fold="1" page="1" pageScale="1" pageWidth="827" pageHeight="1169" math="0" shadow="0">
      <root>
        <mxCell id="0" />
        <mxCell id="1" parent="0" />
        <mxCell id="ecJqm-v5bZDQitUz-0RF-4" value="&lt;font style=&quot;font-size: 30px;&quot;&gt;溫度&amp;gt;30&lt;/font&gt;&lt;div&gt;&lt;font style=&quot;font-size: 30px;&quot;&gt;且濕度&amp;lt;90%&lt;/font&gt;&lt;/div&gt;" style="rhombus;whiteSpace=wrap;html=1;" parent="1" vertex="1">
          <mxGeometry x="860" y="-854" width="300" height="160" as="geometry" />
        </mxCell>
        <mxCell id="x1KHUrAlbdS4utBoIztd-19" style="edgeStyle=orthogonalEdgeStyle;rounded=0;orthogonalLoop=1;jettySize=auto;html=1;exitX=1;exitY=0.5;exitDx=0;exitDy=0;" edge="1" parent="1" source="ecJqm-v5bZDQitUz-0RF-12">
          <mxGeometry relative="1" as="geometry">
            <mxPoint x="460" y="-780" as="targetPoint" />
            <Array as="points">
              <mxPoint x="1750" y="-744" />
              <mxPoint x="1750" y="-950" />
              <mxPoint x="460" y="-950" />
            </Array>
          </mxGeometry>
        </mxCell>
        <mxCell id="ecJqm-v5bZDQitUz-0RF-12" value="&lt;font style=&quot;font-size: 30px;&quot;&gt;開啟霧化裝置&lt;/font&gt;" style="whiteSpace=wrap;html=1;" parent="1" vertex="1">
          <mxGeometry x="1490" y="-804" width="240" height="120" as="geometry" />
        </mxCell>
        <mxCell id="x1KHUrAlbdS4utBoIztd-17" style="edgeStyle=orthogonalEdgeStyle;rounded=0;orthogonalLoop=1;jettySize=auto;html=1;exitX=0.5;exitY=1;exitDx=0;exitDy=0;" edge="1" parent="1" source="x1KHUrAlbdS4utBoIztd-5">
          <mxGeometry relative="1" as="geometry">
            <mxPoint x="460" y="-770" as="targetPoint" />
            <Array as="points">
              <mxPoint x="1210" y="-450" />
              <mxPoint x="460" y="-450" />
            </Array>
          </mxGeometry>
        </mxCell>
        <mxCell id="x1KHUrAlbdS4utBoIztd-18" value="&lt;font style=&quot;font-size: 20px;&quot;&gt;否&lt;/font&gt;" style="edgeLabel;html=1;align=center;verticalAlign=middle;resizable=0;points=[];" vertex="1" connectable="0" parent="x1KHUrAlbdS4utBoIztd-17">
          <mxGeometry x="-0.2947" y="4" relative="1" as="geometry">
            <mxPoint x="-1" as="offset" />
          </mxGeometry>
        </mxCell>
        <mxCell id="x1KHUrAlbdS4utBoIztd-5" value="&lt;span style=&quot;font-size: 30px;&quot;&gt;紅外線感測&lt;/span&gt;" style="rhombus;whiteSpace=wrap;html=1;" vertex="1" parent="1">
          <mxGeometry x="1060" y="-654" width="300" height="160" as="geometry" />
        </mxCell>
        <mxCell id="ecJqm-v5bZDQitUz-0RF-5" value="&lt;font style=&quot;font-size: 30px;&quot;&gt;網站顯示數據&lt;/font&gt;" style="rounded=0;whiteSpace=wrap;html=1;" parent="1" vertex="1">
          <mxGeometry x="510" y="-835" width="220" height="120" as="geometry" />
        </mxCell>
        <mxCell id="ecJqm-v5bZDQitUz-0RF-1" value="&lt;font style=&quot;font-size: 30px;&quot;&gt;DHT11連接電源&lt;/font&gt;&lt;div&gt;&lt;font style=&quot;font-size: 30px;&quot;&gt;開始偵測溫濕度&lt;/font&gt;&lt;/div&gt;" style="rounded=0;whiteSpace=wrap;html=1;" parent="1" vertex="1">
          <mxGeometry x="160" y="-840" width="250" height="130" as="geometry" />
        </mxCell>
        <mxCell id="x1KHUrAlbdS4utBoIztd-9" style="edgeStyle=orthogonalEdgeStyle;rounded=0;orthogonalLoop=1;jettySize=auto;html=1;exitX=0.5;exitY=1;exitDx=0;exitDy=0;entryX=0;entryY=0.5;entryDx=0;entryDy=0;" edge="1" parent="1" source="ecJqm-v5bZDQitUz-0RF-4" target="x1KHUrAlbdS4utBoIztd-5">
          <mxGeometry relative="1" as="geometry" />
        </mxCell>
        <mxCell id="x1KHUrAlbdS4utBoIztd-11" value="&lt;font style=&quot;font-size: 20px;&quot;&gt;否&lt;/font&gt;" style="edgeLabel;html=1;align=center;verticalAlign=middle;resizable=0;points=[];" vertex="1" connectable="0" parent="x1KHUrAlbdS4utBoIztd-9">
          <mxGeometry x="-0.5366" y="-2" relative="1" as="geometry">
            <mxPoint y="-1" as="offset" />
          </mxGeometry>
        </mxCell>
        <mxCell id="x1KHUrAlbdS4utBoIztd-10" style="edgeStyle=orthogonalEdgeStyle;rounded=0;orthogonalLoop=1;jettySize=auto;html=1;exitX=1;exitY=0.5;exitDx=0;exitDy=0;entryX=0;entryY=0.25;entryDx=0;entryDy=0;" edge="1" parent="1" source="ecJqm-v5bZDQitUz-0RF-4" target="ecJqm-v5bZDQitUz-0RF-12">
          <mxGeometry relative="1" as="geometry" />
        </mxCell>
        <mxCell id="x1KHUrAlbdS4utBoIztd-13" value="&lt;font style=&quot;font-size: 20px;&quot;&gt;是&lt;/font&gt;" style="edgeLabel;html=1;align=center;verticalAlign=middle;resizable=0;points=[];" vertex="1" connectable="0" parent="x1KHUrAlbdS4utBoIztd-10">
          <mxGeometry x="-0.034" relative="1" as="geometry">
            <mxPoint x="-1" as="offset" />
          </mxGeometry>
        </mxCell>
        <mxCell id="ecJqm-v5bZDQitUz-0RF-8" style="edgeStyle=orthogonalEdgeStyle;rounded=0;orthogonalLoop=1;jettySize=auto;html=1;exitX=1;exitY=0.5;exitDx=0;exitDy=0;entryX=0;entryY=0.5;entryDx=0;entryDy=0;" parent="1" source="ecJqm-v5bZDQitUz-0RF-5" target="ecJqm-v5bZDQitUz-0RF-4" edge="1">
          <mxGeometry relative="1" as="geometry" />
        </mxCell>
        <mxCell id="x1KHUrAlbdS4utBoIztd-7" style="edgeStyle=orthogonalEdgeStyle;rounded=0;orthogonalLoop=1;jettySize=auto;html=1;exitX=1;exitY=0.5;exitDx=0;exitDy=0;entryX=0;entryY=0.75;entryDx=0;entryDy=0;" edge="1" parent="1" source="x1KHUrAlbdS4utBoIztd-5" target="ecJqm-v5bZDQitUz-0RF-12">
          <mxGeometry relative="1" as="geometry" />
        </mxCell>
        <mxCell id="x1KHUrAlbdS4utBoIztd-14" value="&lt;font style=&quot;font-size: 20px;&quot;&gt;是&lt;/font&gt;" style="edgeLabel;html=1;align=center;verticalAlign=middle;resizable=0;points=[];" vertex="1" connectable="0" parent="x1KHUrAlbdS4utBoIztd-7">
          <mxGeometry x="-0.1174" y="-5" relative="1" as="geometry">
            <mxPoint y="1" as="offset" />
          </mxGeometry>
        </mxCell>
        <mxCell id="ecJqm-v5bZDQitUz-0RF-7" style="edgeStyle=orthogonalEdgeStyle;rounded=0;orthogonalLoop=1;jettySize=auto;html=1;exitX=1;exitY=0.5;exitDx=0;exitDy=0;entryX=0;entryY=0.5;entryDx=0;entryDy=0;" parent="1" source="ecJqm-v5bZDQitUz-0RF-1" target="ecJqm-v5bZDQitUz-0RF-5" edge="1">
          <mxGeometry relative="1" as="geometry" />
        </mxCell>
      </root>
    </mxGraphModel>
  </diagram>
</mxfile>
